HIERARCHY
ROOT Hips
{
 OFFSET 0.000000 0.000000 0.000000
 CHANNELS 6 Xposition Yposition Zposition Yrotation Xrotation Zrotation
 JOINT Chest
 {
  OFFSET 0.000000 9.585900 0.002600
  CHANNELS 3 Yrotation Xrotation Zrotation
  JOINT Chest2
  {
   OFFSET 0.000000 9.601200 -0.005300
   CHANNELS 3 Yrotation Xrotation Zrotation
   JOINT Chest3
   {
    OFFSET 0.000000 9.561800 0.000000
    CHANNELS 3 Yrotation Xrotation Zrotation
    JOINT Chest4
    {
     OFFSET 0.000000 9.552100 0.000000
     CHANNELS 3 Yrotation Xrotation Zrotation
     JOINT Neck
     {
      OFFSET 0.000000 14.453000 0.000000
      CHANNELS 3 Yrotation Xrotation Zrotation
      JOINT Head
      {
       OFFSET 0.000000 8.936500 -0.011300
       CHANNELS 3 Yrotation Xrotation Zrotation
       End Site
       {
        OFFSET 0.000000 17.073600 -0.006000
       }
      }
     }
     JOINT RightCollar
     {
      OFFSET -2.921100 9.558500 0.000000
      CHANNELS 3 Yrotation Xrotation Zrotation
      JOINT RightShoulder
      {
       OFFSET -13.519700 0.000000 0.000000
       CHANNELS 3 Yrotation Xrotation Zrotation
       JOINT RightElbow
       {
        OFFSET 0.000000 -29.696600 0.000000
        CHANNELS 3 Yrotation Xrotation Zrotation
        JOINT RightWrist
        {
         OFFSET 0.000000 -24.004700 0.000000
         CHANNELS 3 Yrotation Xrotation Zrotation
         End Site
         {
          OFFSET 0.000000 -17.728500 0.000000
         }
        }
       }
      }
     }
     JOINT LeftCollar
     {
      OFFSET 2.921100 9.558500 0.000000
      CHANNELS 3 Yrotation Xrotation Zrotation
      JOINT LeftShoulder
      {
       OFFSET 13.519700 0.000000 0.000000
       CHANNELS 3 Yrotation Xrotation Zrotation
       JOINT LeftElbow
       {
        OFFSET 0.000000 -29.696600 0.000000
        CHANNELS 3 Yrotation Xrotation Zrotation
        JOINT LeftWrist
        {
         OFFSET 0.000000 -24.004700 0.000000
         CHANNELS 3 Yrotation Xrotation Zrotation
         End Site
         {
          OFFSET 0.000000 -17.728500 0.000000
         }
        }
       }
      }
     }
    }
   }
  }
 }
 JOINT RightHip
 {
  OFFSET -7.771700 -0.012900 -0.001300
  CHANNELS 3 Yrotation Xrotation Zrotation
  JOINT RightKnee
  {
   OFFSET 0.000000 -40.869800 0.001200
   CHANNELS 3 Yrotation Xrotation Zrotation
   JOINT RightAnkle
   {
    OFFSET 0.000000 -39.717900 0.002100
    CHANNELS 3 Yrotation Xrotation Zrotation
    JOINT RightToe
    {
     OFFSET 0.000000 -4.965400 11.033500
     CHANNELS 3 Yrotation Xrotation Zrotation
     End Site
     {
      OFFSET 0.000000 -1.423100 5.872300
     }
    }
   }
  }
 }
 JOINT LeftHip
 {
  OFFSET 7.771700 -0.012900 -0.001300
  CHANNELS 3 Yrotation Xrotation Zrotation
  JOINT LeftKnee
  {
   OFFSET 0.000000 -40.869800 0.001200
   CHANNELS 3 Yrotation Xrotation Zrotation
   JOINT LeftAnkle
   {
    OFFSET 0.000000 -39.717900 0.002100
    CHANNELS 3 Yrotation Xrotation Zrotation
    JOINT LeftToe
    {
     OFFSET 0.000000 -4.965400 11.033500
     CHANNELS 3 Yrotation Xrotation Zrotation
     End Site
     {
      OFFSET 0.000000 -1.423100 5.872300
     }
    }
   }
  }
 }
}
MOTION
Frames: 14
Frame Time: 0.008333
0.000000 85.388000 0.000000 0.000000 -5.767877 0.000000 0.000000 11.653817 0.000000 0.000000 -5.885947 0.000000 0.000000 -0.000000 0.000000 0.000000 -0.000000 0.000000 0.000000 12.528835 0.000000 0.000000 0.711642 0.000000 0.000000 -0.000000 0.000000 0.000000 0.000000 -90.000000 0.000000 -2.309062 0.000000 0.000000 2.309062 0.000000 0.000000 -0.000000 0.000000 0.000000 -0.000000 90.000000 0.000000 -2.309062 0.000000 0.000000 2.309062 0.000000 0.000000 8.520406 0.000000 0.000000 1.905762 0.000000 -0.000000 -4.658285 0.000000 0.000000 -0.000000 0.000000 0.000000 8.520406 0.000000 0.000000 1.905762 0.000000 -0.000000 -4.658285 0.000000 0.000000 -0.000000 0.000000
-191.024545 57.371456 -60.425653 157.398049 -12.381924 0.871413 3.787138 6.613231 1.441684 0.169605 0.308611 0.025136 0.284135 0.556127 0.046031 3.522992 6.344090 0.701413 0.762833 19.221555 -1.065441 1.686309 -0.031389 -2.174213 0.427703 9.141545 0.356019 -8.788077 -7.461687 -5.887316 -109.384571 -82.878239 132.253619 -3.059113 3.431458 -26.133660 -4.032339 9.550961 -1.785155 23.321944 -5.418548 1.935553 80.671979 -70.142029 -113.501793 -1.985168 7.610020 11.939668 -11.847921 -60.117868 6.018458 -30.996199 71.440229 -31.753538 -2.902414 -5.299115 -1.719066 -0.278327 0.766126 -0.170236 1.498866 -62.117628 16.701945 40.899492 65.687368 34.236819 -16.325930 -8.536705 3.907434 -0.217587 -0.969709 -0.068011
-191.022578 57.373347 -60.424645 157.378231 -12.368197 0.877710 3.790795 6.621342 1.439049 0.169251 0.308818 0.024894 0.296280 0.540370 0.044354 3.507844 6.362543 0.698050 0.740901 19.255043 -1.062556 1.703827 -0.053085 -2.183078 0.439432 9.129264 0.357224 -8.811418 -7.467295 -5.911355 -109.479862 -82.850803 132.361392 -3.063933 3.413520 -26.171691 -4.024003 9.540371 -1.787446 23.343577 -5.398538 1.949478 81.026533 -70.244728 -113.753468 -1.998042 7.634585 11.968738 -11.842716 -60.129019 6.023812 -30.986324 71.437176 -31.726916 -2.917477 -5.297753 -1.735655 -0.253676 0.764395 -0.170299 1.531000 -62.126894 16.701418 40.869595 65.690507 34.201693 -16.330732 -8.512762 3.889312 -0.202797 -0.976992 -0.053007
-191.019839 57.375541 -60.423500 157.352231 -12.354479 0.883523 3.788922 6.647923 1.436545 0.183013 0.288923 0.024631 0.296065 0.540665 0.043831 3.504414 6.366876 0.691543 0.749579 19.245666 -1.061022 1.694087 -0.030444 -2.175903 0.449497 9.116024 0.360546 -8.830213 -7.473006 -5.936055 -109.690457 -82.828890 132.561720 -3.084937 3.424475 -26.156236 -4.026555 9.543382 -1.792341 23.385601 -5.375028 1.975377 81.458269 -70.339327 -114.095402 -2.012850 7.654540 11.996097 -11.875671 -60.134723 6.053109 -30.906525 71.439570 -31.646247 -2.903183 -5.299849 -1.746809 -0.266529 0.767893 -0.173938 1.564370 -62.135514 16.706111 40.844471 65.693733 34.168644 -16.324539 -8.493568 3.885319 -0.193578 -0.979066 -0.052040
-191.016690 57.377574 -60.420548 157.321264 -12.331391 0.886041 3.805064 6.644420 1.436505 0.184696 0.290969 0.025658 0.279922 0.560303 0.041983 3.516218 6.351067 0.686707 0.757566 19.235970 -1.060415 1.682996 -0.006348 -2.169859 0.458032 9.113562 0.364288 -8.846454 -7.490218 -5.959111 -109.928340 -82.804467 132.786229 -3.093085 3.376287 -26.238716 -4.030851 9.545126 -1.799748 23.412733 -5.391194 1.976662 81.815743 -70.457980 -114.339315 -2.025749 7.670896 12.021071 -11.886252 -60.151795 6.082087 -30.870947 71.435838 -31.599021 -2.901718 -5.297457 -1.768582 -0.263316 0.770208 -0.153295 1.596688 -62.152759 16.719827 40.844696 65.688411 34.156287 -16.336452 -8.478112 3.891358 -0.195628 -0.974751 -0.061526
-191.014623 57.379235 -60.416065 157.320941 -12.298203 0.885690 3.797963 6.620840 1.432972 0.176988 0.299652 0.025588 0.280220 0.562930 0.039947 3.513483 6.357216 0.684227 0.740470 19.267452 -1.057517 1.697575 -0.028665 -2.175199 0.466634 9.104168 0.370490 -8.860541 -7.503738 -5.985408 -110.425364 -82.780853 133.229441 -3.124645 3.371614 -26.254613 -4.033148 9.541310 -1.804631 23.437865 -5.404145 1.977069 82.203251 -70.578273 -114.610382 -2.037650 7.685579 12.046692 -11.927892 -60.179116 6.113118 -30.845910 71.431937 -31.565373 -2.901962 -5.297488 -1.785743 -0.252569 0.770962 -0.151459 1.608131 -62.180762 16.724742 40.833382 65.673487 34.121372 -16.332731 -8.438650 3.897194 -0.218364 -0.980646 -0.066272
-191.012177 57.381313 -60.414001 157.319651 -12.280422 0.889531 3.791207 6.613478 1.426022 0.160868 0.326603 0.021230 0.292130 0.548571 0.041582 3.509826 6.363849 0.681930 0.748769 19.253699 -1.054907 1.689400 -0.008467 -2.166168 0.472451 9.090798 0.376418 -8.873509 -7.517073 -6.009908 -110.586602 -82.757774 133.383478 -3.137606 3.367613 -26.260625 -4.051092 9.558751 -1.817106 23.483268 -5.418215 1.980053 82.682681 -70.695975 -114.979938 -2.051566 7.699953 12.071570 -11.960665 -60.193121 6.134482 -30.838448 71.430767 -31.553080 -2.898146 -5.301639 -1.800058 -0.242854 0.771525 -0.150081 1.622580 -62.195704 16.719332 40.820253 65.666237 34.099192 -16.333329 -8.401414 3.888595 -0.211002 -0.988668 -0.064600
-191.008037 57.383380 -60.412366 157.320927 -12.269800 0.884341 3.777579 6.622806 1.423837 0.163450 0.335371 0.022340 0.295320 0.544320 0.042454 3.507661 6.362616 0.679429 0.751981 19.245931 -1.052620 1.683613 0.012752 -2.159428 0.476984 9.080839 0.381553 -8.890091 -7.528212 -6.030122 -110.611285 -82.736878 133.420110 -3.127690 3.318169 -26.329609 -4.049243 9.547038 -1.815769 23.498390 -5.416567 1.972974 83.122209 -70.827322 -115.296658 -2.066852 7.713953 12.097083 -12.001092 -60.200393 6.165175 -30.849635 71.431821 -31.557500 -2.886032 -5.302213 -1.811825 -0.228714 0.766282 -0.144375 1.617600 -62.204156 16.729968 40.819720 65.656248 34.088862 -16.313668 -8.368088 3.880518 -0.227596 -0.994256 -0.066509
-191.004269 57.385353 -60.411738 157.317956 -12.264315 0.883743 3.771651 6.665466 1.421083 0.168790 0.311658 0.023589 0.295727 0.538861 0.042397 3.509057 6.351972 0.678077 0.737236 19.304968 -1.052716 1.689486 0.015671 -2.144953 0.474631 9.090226 0.382667 -8.903457 -7.542103 -6.045419 -110.836468 -82.720684 133.620049 -3.133736 3.292011 -26.365906 -4.067768 9.569373 -1.820499 23.524616 -5.435286 1.955840 83.576486 -70.960671 -115.624341 -2.082282 7.731394 12.125290 -12.011306 -60.204332 6.175790 -30.861896 71.431807 -31.563709 -2.882083 -5.300715 -1.811850 -0.225556 0.760762 -0.142981 1.623930 -62.208064 16.733081 40.820145 65.649092 34.082671 -16.305364 -8.335802 3.869534 -0.242982 -1.011418 -0.060286
-191.000041 57.387065 -60.411146 157.304137 -12.259951 0.881713 3.783707 6.678771 1.424883 0.168713 0.318175 0.022719 0.296789 0.520748 0.043490 3.502605 6.378592 0.670740 0.745364 19.288834 -1.046723 1.693427 0.023819 -2.137347 0.477302 9.069906 0.389832 -8.908904 -7.551173 -6.058982 -111.320403 -82.718650 134.052093 -3.169743 3.293996 -26.369800 -4.081017 9.569442 -1.821538 23.550434 -5.458217 1.940434 84.053879 -71.090865 -115.974951 -2.095810 7.756175 12.162073 -12.045922 -60.204474 6.214174 -30.848018 71.432653 -31.555871 -2.871407 -5.300344 -1.808820 -0.230080 0.757217 -0.146566 1.634699 -62.215070 16.752868 40.798052 65.657845 34.059804 -16.328199 -8.299767 3.852135 -0.226473 -1.034259 -0.045999
-190.999134 57.388472 -60.411417 157.299237 -12.252540 0.896171 3.786695 6.678372 1.410594 0.168603 0.324338 0.022014 0.295681 0.534398 0.042596 3.500899 6.386295 0.664315 0.750661 19.271856 -1.040444 1.695134 0.015346 -2.135182 0.474442 9.048535 0.393043 -8.905612 -7.561729 -6.060309 -111.574210 -82.718485 134.280621 -3.181690 3.287198 -26.389904 -4.093815 9.561644 -1.821930 23.571384 -5.474847 1.927525 84.551912 -71.216868 -116.347561 -2.104462 7.787561 12.211716 -12.081913 -60.210439 6.221854 -30.796201 71.443200 -31.507107 -2.862368 -5.311788 -1.806892 -0.229816 0.761382 -0.160080 1.667167 -62.222856 16.725925 40.806679 65.652674 34.066649 -16.350776 -8.255618 3.826303 -0.238805 -1.054686 -0.036216
-190.995727 57.389354 -60.409414 157.302663 -12.237783 0.887174 3.784432 6.686304 1.415682 0.168956 0.313101 0.022963 0.295599 0.570923 0.037325 3.499136 6.372130 0.660526 0.757512 19.270908 -1.034067 1.705926 0.013552 -2.125713 0.474694 9.027777 0.400987 -8.919081 -7.569058 -6.078483 -111.833978 -82.703960 134.528674 -3.204505 3.299598 -26.380437 -4.104064 9.553590 -1.819679 23.587330 -5.494162 1.912761 85.050906 -71.336372 -116.717678 -2.109511 7.822940 12.269688 -12.124474 -60.220501 6.248954 -30.815932 71.443172 -31.500569 -2.865811 -5.321583 -1.838355 -0.212540 0.762243 -0.146822 1.652057 -62.237498 16.742469 40.790542 65.650890 34.046575 -16.345794 -8.229887 3.826642 -0.227121 -1.053708 -0.045373
-190.995051 57.389958 -60.407870 157.307514 -12.218611 0.890602 3.783176 6.709644 1.404520 0.168521 0.313917 0.022313 0.294937 0.549262 0.039594 3.487759 6.408688 0.642642 0.779403 19.273020 -1.021222 1.714963 -0.012421 -2.113253 0.485119 8.983725 0.422422 -8.930528 -7.581937 -6.097332 -112.058489 -82.693631 134.740723 -3.209225 3.287770 -26.417838 -4.096146 9.510448 -1.798835 23.595330 -5.504015 1.899149 85.537116 -71.447595 -117.073569 -2.114522 7.862058 12.331573 -12.146001 -60.236629 6.254605 -30.799403 71.443486 -31.476089 -2.862023 -5.328763 -1.851623 -0.209763 0.766088 -0.137126 1.659939 -62.256059 16.728310 40.772199 65.648276 34.022148 -16.337620 -8.197388 3.832893 -0.256939 -1.043009 -0.071535
-190.994415 57.390875 -60.408627 157.303417 -12.211382 0.897384 3.788487 6.712729 1.396724 0.170455 0.323560 0.021003 0.294460 0.549942 0.039193 3.481197 6.414899 0.637277 0.790628 19.267205 -1.015966 1.768767 0.023780 -2.103780 0.479307 8.981824 0.426268 -8.950382 -7.607699 -6.126696 -112.190583 -82.665531 134.879455 -3.182146 3.264321 -26.474670 -4.097398 9.499065 -1.792545 23.605439 -5.513594 1.883046 86.017989 -71.546071 -117.431439 -2.122190 7.908456 12.396588 -12.155301 -60.241012 6.255165 -30.770050 71.446609 -31.443196 -2.861961 -5.336493 -1.860654 -0.207291 0.769961 -0.130957 1.660797 -62.258590 16.723170 40.774056 65.645851 34.012119 -16.317335 -8.168953 3.832301 -0.269647 -1.064833 -0.070907
